<svg xmlns="http://www.w3.org/2000/svg" width="1440" height="1192" viewBox="0 0 1440 1192" font-family="Inter, Arial, sans-serif">
<title>01-list-1440-filled</title>
<rect x="0" y="0" width="1440" height="1192" rx="0" fill="#f3f5f9"/>
<rect x="0" y="0" width="248" height="1192" rx="0" fill="#0f172a"/>
<rect x="20" y="20" width="32" height="32" rx="7" fill="#2563eb"/>
<text x="36" y="36.5" font-family="Inter, Arial, sans-serif" font-size="16" font-weight="700" fill="#ffffff" text-anchor="middle" dominant-baseline="middle">E</text>
<text x="64" y="36.5" font-family="Inter, Arial, sans-serif" font-size="16" font-weight="600" fill="#ffffff" text-anchor="start" dominant-baseline="middle">Easy Admin</text>
<text x="24" y="80" font-family="Inter, Arial, sans-serif" font-size="12" font-weight="600" fill="#64748b" text-anchor="start" letter-spacing="0.7" dominant-baseline="middle">OPERATIONS</text>
<rect x="12" y="98" width="224" height="44" rx="7" fill="rgba(37,99,235,0.22)"/>
<rect x="24" y="116" width="12" height="8" rx="2" fill="#2563eb"/>
<rect x="36" y="119" width="5" height="5" rx="1" fill="#2563eb"/>
<circle cx="28" cy="126" r="2" fill="#2563eb"/>
<circle cx="37" cy="126" r="2" fill="#2563eb"/>
<text x="52" y="120.5" font-family="Inter, Arial, sans-serif" font-size="14" font-weight="500" fill="#ffffff" text-anchor="start" dominant-baseline="middle">Delivery agents</text>
<rect x="248" y="0" width="1192" height="56" rx="0" fill="#ffffff"/>
<line x1="248" y1="56" x2="1440" y2="56" stroke="#e3e8ef" stroke-width="1" stroke-linecap="round"/>
<text x="272" y="28.5" font-family="Inter, Arial, sans-serif" font-size="14" font-weight="600" fill="#475569" text-anchor="start" dominant-baseline="middle">Admin panel</text>
<rect x="1391" y="21" width="9" height="14" rx="2" fill="none" stroke="#64748b" stroke-width="1.6"/>
<line x1="1397" y1="28" x2="1406" y2="28" stroke="#64748b" stroke-width="1.8" stroke-linecap="round"/>
<polyline points="1402,24 1406,28 1402,32" fill="none" stroke="#64748b" stroke-width="1.8" stroke-linecap="round" stroke-linejoin="round"/>
<rect x="1220" y="12" width="152" height="32" rx="999" fill="#f8fafc"/>
<circle cx="1240" cy="25" r="4" fill="#475569"/>
<rect x="1233" y="31" width="14" height="6" rx="3" fill="#475569"/>
<text x="1254" y="28.5" font-family="Inter, Arial, sans-serif" font-size="12" font-weight="400" fill="#475569" text-anchor="start" dominant-baseline="middle">admin@example.com</text>
<path d="M1198 20a8 8 0 1 0 6 12a7 7 0 0 1-6-12z" fill="#2563eb"/>
<text x="272" y="94" font-family="Inter, Arial, sans-serif" font-size="24" font-weight="700" fill="#0f172a" text-anchor="start" dominant-baseline="middle">Delivery agents</text>
<text x="272" y="120" font-family="Inter, Arial, sans-serif" font-size="14" font-weight="400" fill="#475569" text-anchor="start" dominant-baseline="middle">Everyone who delivers for Easy: approval, availability and performance at a glance.</text>
<rect x="1295" y="80" width="121" height="44" rx="7" fill="#2563eb" stroke="#2563eb" stroke-width="1"/>
<line x1="1318" y1="95" x2="1318" y2="109" stroke="#ffffff" stroke-width="2" stroke-linecap="round"/>
<line x1="1311" y1="102" x2="1325" y2="102" stroke="#ffffff" stroke-width="2" stroke-linecap="round"/>
<text x="1333" y="102.5" font-family="Inter, Arial, sans-serif" font-size="14" font-weight="600" fill="#ffffff" text-anchor="start" dominant-baseline="middle">Add agent</text>
<rect x="272" y="148" width="274" height="112" rx="12" fill="#ffffff" stroke="#e3e8ef" stroke-width="1"/>
<text x="292" y="178" font-family="Inter, Arial, sans-serif" font-size="12" font-weight="500" fill="#64748b" text-anchor="start" letter-spacing="0.5" dominant-baseline="middle">TOTAL AGENTS</text>
<text x="292" y="208" font-family="Inter, Arial, sans-serif" font-size="28" font-weight="700" fill="#0f172a" text-anchor="start" dominant-baseline="middle">32</text>
<rect x="486" y="168" width="40" height="40" rx="10" fill="#dbeafe"/>
<circle cx="503" cy="184" r="3.5" fill="#2563eb"/>
<circle cx="510" cy="185" r="2.5" fill="#2563eb"/>
<rect x="497" y="189" width="12" height="6" rx="3" fill="#2563eb"/>
<rect x="507" y="190" width="8" height="5" rx="2.5" fill="#2563eb"/>
<rect x="562" y="148" width="274" height="112" rx="12" fill="#ffffff" stroke="#e3e8ef" stroke-width="1"/>
<text x="582" y="178" font-family="Inter, Arial, sans-serif" font-size="12" font-weight="500" fill="#64748b" text-anchor="start" letter-spacing="0.5" dominant-baseline="middle">PENDING APPROVAL</text>
<text x="582" y="208" font-family="Inter, Arial, sans-serif" font-size="28" font-weight="700" fill="#0f172a" text-anchor="start" dominant-baseline="middle">5</text>
<text x="582" y="236" font-family="Inter, Arial, sans-serif" font-size="12" font-weight="400" fill="#475569" text-anchor="start" dominant-baseline="middle">Needs a decision</text>
<rect x="776" y="168" width="40" height="40" rx="10" fill="#fef3c7"/>
<circle cx="795" cy="187" r="7" fill="none" stroke="#b45309"/>
<line x1="795" y1="183" x2="795" y2="187" stroke="#b45309" stroke-width="2" stroke-linecap="round"/>
<line x1="795" y1="187" x2="798" y2="189" stroke="#b45309" stroke-width="2" stroke-linecap="round"/>
<rect x="852" y="148" width="274" height="112" rx="12" fill="#ffffff" stroke="#e3e8ef" stroke-width="1"/>
<text x="872" y="178" font-family="Inter, Arial, sans-serif" font-size="12" font-weight="500" fill="#64748b" text-anchor="start" letter-spacing="0.5" dominant-baseline="middle">ONLINE NOW</text>
<text x="872" y="208" font-family="Inter, Arial, sans-serif" font-size="28" font-weight="700" fill="#0f172a" text-anchor="start" dominant-baseline="middle">18</text>
<text x="872" y="236" font-family="Inter, Arial, sans-serif" font-size="12" font-weight="400" fill="#475569" text-anchor="start" dominant-baseline="middle">7 busy · 7 offline</text>
<rect x="1066" y="168" width="40" height="40" rx="10" fill="#dcfce7"/>
<polygon points="1086,179 1080,188 1085,188 1083,196 1090,186 1085,186" fill="#15803d"/>
<rect x="1142" y="148" width="274" height="112" rx="12" fill="#ffffff" stroke="#e3e8ef" stroke-width="1"/>
<text x="1162" y="178" font-family="Inter, Arial, sans-serif" font-size="12" font-weight="500" fill="#64748b" text-anchor="start" letter-spacing="0.5" dominant-baseline="middle">AVERAGE RATING</text>
<text x="1162" y="208" font-family="Inter, Arial, sans-serif" font-size="28" font-weight="700" fill="#0f172a" text-anchor="start" dominant-baseline="middle">4.5</text>
<text x="1162" y="236" font-family="Inter, Arial, sans-serif" font-size="12" font-weight="400" fill="#475569" text-anchor="start" dominant-baseline="middle">Out of 5, rated agents only</text>
<rect x="1356" y="168" width="40" height="40" rx="10" fill="#cffafe"/>
<polygon points="1375.0,179.0 1377.1,184.1 1382.6,184.5 1378.4,188.1 1379.7,193.5 1375.0,190.6 1370.3,193.5 1371.6,188.1 1367.4,184.5 1372.9,184.1" fill="#0e7490"/>
<rect x="272" y="276" width="1144" height="76" rx="12" fill="#ffffff" stroke="#e3e8ef" stroke-width="1"/>
<rect x="288" y="292" width="359" height="44" rx="7" fill="#ffffff" stroke="#cbd5e1" stroke-width="1"/>
<circle cx="307" cy="313" r="5.5" fill="none" stroke="#64748b"/>
<line x1="311" y1="317" x2="316" y2="322" stroke="#64748b" stroke-width="2" stroke-linecap="round"/>
<text x="324" y="314.5" font-family="Inter, Arial, sans-serif" font-size="14" font-weight="400" fill="#64748b" text-anchor="start" dominant-baseline="middle">Search name, phone or email</text>
<rect x="659" y="292" width="200" height="44" rx="7" fill="#ffffff" stroke="#cbd5e1" stroke-width="1"/>
<text x="671" y="314.5" font-family="Inter, Arial, sans-serif" font-size="14" font-weight="400" fill="#64748b" text-anchor="start" dominant-baseline="middle">All vehicles</text>
<polyline points="835,311 841,317 847,311" fill="none" stroke="#64748b" stroke-width="2" stroke-linecap="round" stroke-linejoin="round"/>
<rect x="871" y="292" width="200" height="44" rx="7" fill="#ffffff" stroke="#cbd5e1" stroke-width="1"/>
<text x="883" y="314.5" font-family="Inter, Arial, sans-serif" font-size="14" font-weight="400" fill="#64748b" text-anchor="start" dominant-baseline="middle">Any approval</text>
<polyline points="1047,311 1053,317 1059,311" fill="none" stroke="#64748b" stroke-width="2" stroke-linecap="round" stroke-linejoin="round"/>
<rect x="1083" y="292" width="200" height="44" rx="7" fill="#ffffff" stroke="#cbd5e1" stroke-width="1"/>
<text x="1095" y="314.5" font-family="Inter, Arial, sans-serif" font-size="14" font-weight="400" fill="#64748b" text-anchor="start" dominant-baseline="middle">Any status</text>
<polyline points="1259,311 1265,317 1271,311" fill="none" stroke="#64748b" stroke-width="2" stroke-linecap="round" stroke-linejoin="round"/>
<rect x="1296" y="292" width="104" height="44" rx="7" fill="#f8fafc" stroke="#e3e8ef" stroke-width="1"/>
<path d="M1332.5 315a6 6 0 1 1-2-4.5" fill="none" stroke="#64748b" stroke-width="2" stroke-linecap="round"/>
<polyline points="1329.5,308 1332.5,311 1329.5,314" fill="none" stroke="#64748b" stroke-width="2" stroke-linecap="round" stroke-linejoin="round"/>
<text x="1340.5" y="314.5" font-family="Inter, Arial, sans-serif" font-size="14" font-weight="600" fill="#64748b" text-anchor="start" dominant-baseline="middle">Reset</text>
<rect x="272" y="368" width="1144" height="800" rx="12" fill="#ffffff" stroke="#e3e8ef" stroke-width="1"/>
<defs><clipPath id="clip1784"><rect x="272" y="368" width="1144" height="800" rx="12"/></clipPath></defs>
<g clip-path="url(#clip1784)"><rect x="272" y="368" width="1142" height="48" rx="0" fill="#f8fafc"/>
<line x1="272" y1="416" x2="1414" y2="416" stroke="#e3e8ef" stroke-width="1" stroke-linecap="round"/>
<text x="288" y="392.5" font-family="Inter, Arial, sans-serif" font-size="12" font-weight="600" fill="#475569" text-anchor="start" letter-spacing="0.24" dominant-baseline="middle">AGENT</text>
<line x1="327" y1="387" x2="327" y2="397" stroke="#64748b" stroke-width="1.6" stroke-linecap="round"/>
<polyline points="324,390 327,387 330,390" fill="none" stroke="#64748b" stroke-width="1.6"/>
<line x1="333" y1="387" x2="333" y2="397" stroke="#64748b" stroke-width="1.6" stroke-linecap="round"/>
<polyline points="330,394 333,397 336,394" fill="none" stroke="#64748b" stroke-width="1.6"/>
<text x="470" y="392.5" font-family="Inter, Arial, sans-serif" font-size="12" font-weight="600" fill="#475569" text-anchor="start" letter-spacing="0.24" dominant-baseline="middle">CONTACT</text>
<text x="618" y="392.5" font-family="Inter, Arial, sans-serif" font-size="12" font-weight="600" fill="#475569" text-anchor="start" letter-spacing="0.24" dominant-baseline="middle">VEHICLE</text>
<text x="702" y="392.5" font-family="Inter, Arial, sans-serif" font-size="12" font-weight="600" fill="#475569" text-anchor="start" letter-spacing="0.24" dominant-baseline="middle">APPROVAL</text>
<text x="810" y="392.5" font-family="Inter, Arial, sans-serif" font-size="12" font-weight="600" fill="#475569" text-anchor="start" letter-spacing="0.24" dominant-baseline="middle">STATUS</text>
<text x="962" y="392.5" font-family="Inter, Arial, sans-serif" font-size="12" font-weight="600" fill="#475569" text-anchor="end" letter-spacing="0.24" dominant-baseline="middle">ASSIGNED</text>
<line x1="969" y1="387" x2="969" y2="397" stroke="#64748b" stroke-width="1.6" stroke-linecap="round"/>
<polyline points="966,390 969,387 972,390" fill="none" stroke="#64748b" stroke-width="1.6"/>
<line x1="975" y1="387" x2="975" y2="397" stroke="#64748b" stroke-width="1.6" stroke-linecap="round"/>
<polyline points="972,394 975,397 978,394" fill="none" stroke="#64748b" stroke-width="1.6"/>
<text x="1066" y="392.5" font-family="Inter, Arial, sans-serif" font-size="12" font-weight="600" fill="#475569" text-anchor="end" letter-spacing="0.24" dominant-baseline="middle">COMPLETED</text>
<line x1="1073" y1="387" x2="1073" y2="397" stroke="#64748b" stroke-width="1.6" stroke-linecap="round"/>
<polyline points="1070,390 1073,387 1076,390" fill="none" stroke="#64748b" stroke-width="1.6"/>
<line x1="1079" y1="387" x2="1079" y2="397" stroke="#64748b" stroke-width="1.6" stroke-linecap="round"/>
<polyline points="1076,394 1079,397 1082,394" fill="none" stroke="#64748b" stroke-width="1.6"/>
<text x="1150" y="392.5" font-family="Inter, Arial, sans-serif" font-size="12" font-weight="600" fill="#475569" text-anchor="end" letter-spacing="0.24" dominant-baseline="middle">RATING</text>
<line x1="1157" y1="387" x2="1157" y2="397" stroke="#64748b" stroke-width="1.6" stroke-linecap="round"/>
<polyline points="1154,390 1157,387 1160,390" fill="none" stroke="#64748b" stroke-width="1.6"/>
<line x1="1163" y1="387" x2="1163" y2="397" stroke="#64748b" stroke-width="1.6" stroke-linecap="round"/>
<polyline points="1160,394 1163,397 1166,394" fill="none" stroke="#64748b" stroke-width="1.6"/>
<text x="1182" y="392.5" font-family="Inter, Arial, sans-serif" font-size="12" font-weight="600" fill="#475569" text-anchor="start" letter-spacing="0.24" dominant-baseline="middle">JOINED</text>
<line x1="1227" y1="387" x2="1227" y2="397" stroke="#2563eb" stroke-width="1.6" stroke-linecap="round"/>
<polyline points="1224,390 1227,387 1230,390" fill="none" stroke="#2563eb" stroke-width="1.6"/>
<line x1="1233" y1="387" x2="1233" y2="397" stroke="#2563eb" stroke-width="1.6" stroke-linecap="round"/>
<polyline points="1230,394 1233,397 1236,394" fill="none" stroke="#2563eb" stroke-width="1.6"/>
<circle cx="306" cy="450" r="18" fill="#fee2e2"/>
<text x="306" y="450.5" font-family="Inter, Arial, sans-serif" font-size="12" font-weight="700" fill="#b91c1c" text-anchor="middle" dominant-baseline="middle">HV</text>
<text x="336" y="440" font-family="Inter, Arial, sans-serif" font-size="14" font-weight="600" fill="#0f172a" text-anchor="start" dominant-baseline="middle">Harini Venkate…</text>
<text x="336" y="460" font-family="Inter, Arial, sans-serif" font-size="12" font-weight="400" fill="#475569" text-anchor="start" dominant-baseline="middle">…1a57c7</text>
<text x="470" y="440" font-family="Inter, Arial, sans-serif" font-size="14" font-weight="600" fill="#0f172a" text-anchor="start" dominant-baseline="middle">+91 98765 00013</text>
<text x="470" y="460" font-family="Inter, Arial, sans-serif" font-size="12" font-weight="400" fill="#475569" text-anchor="start" dominant-baseline="middle">harini.v@example.com</text>
<rect x="618" y="439" width="41" height="22" rx="999" fill="#cffafe"/>


<text x="626" y="450.5" font-family="Inter, Arial, sans-serif" font-size="12" font-weight="600" fill="#0e7490" text-anchor="start" dominant-baseline="middle">Bike</text>
<rect x="702" y="439" width="80" height="22" rx="999" fill="#fef3c7"/>

<circle cx="717" cy="450" r="7" fill="none" stroke="#b45309"/>
<line x1="717" y1="446" x2="717" y2="450" stroke="#b45309" stroke-width="2" stroke-linecap="round"/>
<line x1="717" y1="450" x2="720" y2="452" stroke="#b45309" stroke-width="2" stroke-linecap="round"/>
<text x="729" y="450.5" font-family="Inter, Arial, sans-serif" font-size="12" font-weight="600" fill="#b45309" text-anchor="start" dominant-baseline="middle">Pending</text>
<rect x="810" y="439" width="66" height="22" rx="999" fill="#dcfce7"/>
<circle cx="822" cy="450" r="4" fill="#15803d"/>

<text x="830" y="450.5" font-family="Inter, Arial, sans-serif" font-size="12" font-weight="600" fill="#15803d" text-anchor="start" dominant-baseline="middle">Online</text>
<text x="978" y="450.5" font-family="Inter, Arial, sans-serif" font-size="14" font-weight="400" fill="#0f172a" text-anchor="end" dominant-baseline="middle">0</text>
<text x="1082" y="450.5" font-family="Inter, Arial, sans-serif" font-size="14" font-weight="400" fill="#0f172a" text-anchor="end" dominant-baseline="middle">0</text>
<text x="1166" y="450.5" font-family="Inter, Arial, sans-serif" font-size="14" font-weight="400" fill="#0f172a" text-anchor="end" dominant-baseline="middle">-</text>
<text x="1182" y="450.5" font-family="Inter, Arial, sans-serif" font-size="14" font-weight="400" fill="#0f172a" text-anchor="start" dominant-baseline="middle">2026-10-06</text>
<ellipse cx="1300" cy="450" rx="8" ry="5" fill="none" stroke="#475569" stroke-width="1.6"/>
<circle cx="1300" cy="450" r="2.4" fill="#475569"/>
<polyline points="1334,450 1338,454 1346,445" fill="none" stroke="#15803d" stroke-width="2" stroke-linecap="round" stroke-linejoin="round"/>
<rect x="1375" y="446" width="10" height="11" rx="1.5" fill="none" stroke="#475569" stroke-width="1.6"/>
<line x1="1373" y1="446" x2="1387" y2="446" stroke="#475569" stroke-width="1.6" stroke-linecap="round"/>
<line x1="1378" y1="443" x2="1382" y2="443" stroke="#475569" stroke-width="1.6" stroke-linecap="round"/>
<line x1="272" y1="484" x2="1414" y2="484" stroke="#e3e8ef" stroke-width="1" stroke-linecap="round"/>
<circle cx="306" cy="518" r="18" fill="#dcfce7"/>
<text x="306" y="518.5" font-family="Inter, Arial, sans-serif" font-size="12" font-weight="700" fill="#15803d" text-anchor="middle" dominant-baseline="middle">IS</text>
<text x="336" y="508" font-family="Inter, Arial, sans-serif" font-size="14" font-weight="600" fill="#0f172a" text-anchor="start" dominant-baseline="middle">Imran Shaikh</text>
<text x="336" y="528" font-family="Inter, Arial, sans-serif" font-size="12" font-weight="400" fill="#475569" text-anchor="start" dominant-baseline="middle">…1a58c7</text>
<text x="470" y="508" font-family="Inter, Arial, sans-serif" font-size="14" font-weight="600" fill="#0f172a" text-anchor="start" dominant-baseline="middle">+91 91111 00099</text>
<text x="470" y="528" font-family="Inter, Arial, sans-serif" font-size="12" font-weight="400" fill="#475569" text-anchor="start" dominant-baseline="middle">imran.shaikh@exampl…</text>
<rect x="618" y="507" width="41" height="22" rx="999" fill="#cffafe"/>


<text x="626" y="518.5" font-family="Inter, Arial, sans-serif" font-size="12" font-weight="600" fill="#0e7490" text-anchor="start" dominant-baseline="middle">Bike</text>
<rect x="702" y="507" width="80" height="22" rx="999" fill="#fef3c7"/>

<circle cx="717" cy="518" r="7" fill="none" stroke="#b45309"/>
<line x1="717" y1="514" x2="717" y2="518" stroke="#b45309" stroke-width="2" stroke-linecap="round"/>
<line x1="717" y1="518" x2="720" y2="520" stroke="#b45309" stroke-width="2" stroke-linecap="round"/>
<text x="729" y="518.5" font-family="Inter, Arial, sans-serif" font-size="12" font-weight="600" fill="#b45309" text-anchor="start" dominant-baseline="middle">Pending</text>
<rect x="810" y="507" width="66" height="22" rx="999" fill="#dcfce7"/>
<circle cx="822" cy="518" r="4" fill="#15803d"/>

<text x="830" y="518.5" font-family="Inter, Arial, sans-serif" font-size="12" font-weight="600" fill="#15803d" text-anchor="start" dominant-baseline="middle">Online</text>
<text x="978" y="518.5" font-family="Inter, Arial, sans-serif" font-size="14" font-weight="400" fill="#0f172a" text-anchor="end" dominant-baseline="middle">0</text>
<text x="1082" y="518.5" font-family="Inter, Arial, sans-serif" font-size="14" font-weight="400" fill="#0f172a" text-anchor="end" dominant-baseline="middle">0</text>
<text x="1166" y="518.5" font-family="Inter, Arial, sans-serif" font-size="14" font-weight="400" fill="#0f172a" text-anchor="end" dominant-baseline="middle">-</text>
<text x="1182" y="518.5" font-family="Inter, Arial, sans-serif" font-size="14" font-weight="400" fill="#0f172a" text-anchor="start" dominant-baseline="middle">2026-10-05</text>
<ellipse cx="1300" cy="518" rx="8" ry="5" fill="none" stroke="#475569" stroke-width="1.6"/>
<circle cx="1300" cy="518" r="2.4" fill="#475569"/>
<polyline points="1334,518 1338,522 1346,513" fill="none" stroke="#15803d" stroke-width="2" stroke-linecap="round" stroke-linejoin="round"/>
<rect x="1375" y="514" width="10" height="11" rx="1.5" fill="none" stroke="#475569" stroke-width="1.6"/>
<line x1="1373" y1="514" x2="1387" y2="514" stroke="#475569" stroke-width="1.6" stroke-linecap="round"/>
<line x1="1378" y1="511" x2="1382" y2="511" stroke="#475569" stroke-width="1.6" stroke-linecap="round"/>
<line x1="272" y1="552" x2="1414" y2="552" stroke="#e3e8ef" stroke-width="1" stroke-linecap="round"/>
<circle cx="306" cy="586" r="18" fill="#dcfce7"/>
<text x="306" y="586.5" font-family="Inter, Arial, sans-serif" font-size="12" font-weight="700" fill="#15803d" text-anchor="middle" dominant-baseline="middle">TD</text>
<text x="336" y="576" font-family="Inter, Arial, sans-serif" font-size="14" font-weight="600" fill="#0f172a" text-anchor="start" dominant-baseline="middle">Tanvi Desai</text>
<text x="336" y="596" font-family="Inter, Arial, sans-serif" font-size="12" font-weight="400" fill="#475569" text-anchor="start" dominant-baseline="middle">…1a59c7</text>
<text x="470" y="576" font-family="Inter, Arial, sans-serif" font-size="14" font-weight="600" fill="#0f172a" text-anchor="start" dominant-baseline="middle">+91 98765 00007</text>
<text x="470" y="596" font-family="Inter, Arial, sans-serif" font-size="12" font-weight="400" fill="#475569" text-anchor="start" dominant-baseline="middle">tanvi.desai@example…</text>
<rect x="618" y="575" width="61" height="22" rx="999" fill="#cffafe"/>


<text x="626" y="586.5" font-family="Inter, Arial, sans-serif" font-size="12" font-weight="600" fill="#0e7490" text-anchor="start" dominant-baseline="middle">Scooter</text>
<rect x="702" y="575" width="80" height="22" rx="999" fill="#fef3c7"/>

<circle cx="717" cy="586" r="7" fill="none" stroke="#b45309"/>
<line x1="717" y1="582" x2="717" y2="586" stroke="#b45309" stroke-width="2" stroke-linecap="round"/>
<line x1="717" y1="586" x2="720" y2="588" stroke="#b45309" stroke-width="2" stroke-linecap="round"/>
<text x="729" y="586.5" font-family="Inter, Arial, sans-serif" font-size="12" font-weight="600" fill="#b45309" text-anchor="start" dominant-baseline="middle">Pending</text>
<rect x="810" y="575" width="66" height="22" rx="999" fill="#dcfce7"/>
<circle cx="822" cy="586" r="4" fill="#15803d"/>

<text x="830" y="586.5" font-family="Inter, Arial, sans-serif" font-size="12" font-weight="600" fill="#15803d" text-anchor="start" dominant-baseline="middle">Online</text>
<text x="978" y="586.5" font-family="Inter, Arial, sans-serif" font-size="14" font-weight="400" fill="#0f172a" text-anchor="end" dominant-baseline="middle">0</text>
<text x="1082" y="586.5" font-family="Inter, Arial, sans-serif" font-size="14" font-weight="400" fill="#0f172a" text-anchor="end" dominant-baseline="middle">0</text>
<text x="1166" y="586.5" font-family="Inter, Arial, sans-serif" font-size="14" font-weight="400" fill="#0f172a" text-anchor="end" dominant-baseline="middle">-</text>
<text x="1182" y="586.5" font-family="Inter, Arial, sans-serif" font-size="14" font-weight="400" fill="#0f172a" text-anchor="start" dominant-baseline="middle">2026-10-04</text>
<ellipse cx="1300" cy="586" rx="8" ry="5" fill="none" stroke="#475569" stroke-width="1.6"/>
<circle cx="1300" cy="586" r="2.4" fill="#475569"/>
<polyline points="1334,586 1338,590 1346,581" fill="none" stroke="#15803d" stroke-width="2" stroke-linecap="round" stroke-linejoin="round"/>
<rect x="1375" y="582" width="10" height="11" rx="1.5" fill="none" stroke="#475569" stroke-width="1.6"/>
<line x1="1373" y1="582" x2="1387" y2="582" stroke="#475569" stroke-width="1.6" stroke-linecap="round"/>
<line x1="1378" y1="579" x2="1382" y2="579" stroke="#475569" stroke-width="1.6" stroke-linecap="round"/>
<line x1="272" y1="620" x2="1414" y2="620" stroke="#e3e8ef" stroke-width="1" stroke-linecap="round"/>
<circle cx="306" cy="654" r="18" fill="#fee2e2"/>
<text x="306" y="654.5" font-family="Inter, Arial, sans-serif" font-size="12" font-weight="700" fill="#b91c1c" text-anchor="middle" dominant-baseline="middle">AM</text>
<text x="336" y="644" font-family="Inter, Arial, sans-serif" font-size="14" font-weight="600" fill="#0f172a" text-anchor="start" dominant-baseline="middle">Arjun Menon</text>
<text x="336" y="664" font-family="Inter, Arial, sans-serif" font-size="12" font-weight="400" fill="#475569" text-anchor="start" dominant-baseline="middle">…1a5ac7</text>
<text x="470" y="644" font-family="Inter, Arial, sans-serif" font-size="14" font-weight="600" fill="#0f172a" text-anchor="start" dominant-baseline="middle">+91 95555 44332</text>
<text x="470" y="664" font-family="Inter, Arial, sans-serif" font-size="12" font-weight="400" fill="#475569" text-anchor="start" dominant-baseline="middle">arjun.menon@example…</text>
<rect x="618" y="643" width="35" height="22" rx="999" fill="#cffafe"/>


<text x="626" y="654.5" font-family="Inter, Arial, sans-serif" font-size="12" font-weight="600" fill="#0e7490" text-anchor="start" dominant-baseline="middle">Car</text>
<rect x="702" y="643" width="80" height="22" rx="999" fill="#fef3c7"/>

<circle cx="717" cy="654" r="7" fill="none" stroke="#b45309"/>
<line x1="717" y1="650" x2="717" y2="654" stroke="#b45309" stroke-width="2" stroke-linecap="round"/>
<line x1="717" y1="654" x2="720" y2="656" stroke="#b45309" stroke-width="2" stroke-linecap="round"/>
<text x="729" y="654.5" font-family="Inter, Arial, sans-serif" font-size="12" font-weight="600" fill="#b45309" text-anchor="start" dominant-baseline="middle">Pending</text>
<rect x="810" y="643" width="66" height="22" rx="999" fill="#dcfce7"/>
<circle cx="822" cy="654" r="4" fill="#15803d"/>

<text x="830" y="654.5" font-family="Inter, Arial, sans-serif" font-size="12" font-weight="600" fill="#15803d" text-anchor="start" dominant-baseline="middle">Online</text>
<text x="978" y="654.5" font-family="Inter, Arial, sans-serif" font-size="14" font-weight="400" fill="#0f172a" text-anchor="end" dominant-baseline="middle">0</text>
<text x="1082" y="654.5" font-family="Inter, Arial, sans-serif" font-size="14" font-weight="400" fill="#0f172a" text-anchor="end" dominant-baseline="middle">0</text>
<text x="1166" y="654.5" font-family="Inter, Arial, sans-serif" font-size="14" font-weight="400" fill="#0f172a" text-anchor="end" dominant-baseline="middle">-</text>
<text x="1182" y="654.5" font-family="Inter, Arial, sans-serif" font-size="14" font-weight="400" fill="#0f172a" text-anchor="start" dominant-baseline="middle">2026-10-03</text>
<ellipse cx="1300" cy="654" rx="8" ry="5" fill="none" stroke="#475569" stroke-width="1.6"/>
<circle cx="1300" cy="654" r="2.4" fill="#475569"/>
<polyline points="1334,654 1338,658 1346,649" fill="none" stroke="#15803d" stroke-width="2" stroke-linecap="round" stroke-linejoin="round"/>
<rect x="1375" y="650" width="10" height="11" rx="1.5" fill="none" stroke="#475569" stroke-width="1.6"/>
<line x1="1373" y1="650" x2="1387" y2="650" stroke="#475569" stroke-width="1.6" stroke-linecap="round"/>
<line x1="1378" y1="647" x2="1382" y2="647" stroke="#475569" stroke-width="1.6" stroke-linecap="round"/>
<line x1="272" y1="688" x2="1414" y2="688" stroke="#e3e8ef" stroke-width="1" stroke-linecap="round"/>
<circle cx="306" cy="722" r="18" fill="#fee2e2"/>
<text x="306" y="722.5" font-family="Inter, Arial, sans-serif" font-size="12" font-weight="700" fill="#b91c1c" text-anchor="middle" dominant-baseline="middle">DN</text>
<text x="336" y="712" font-family="Inter, Arial, sans-serif" font-size="14" font-weight="600" fill="#0f172a" text-anchor="start" dominant-baseline="middle">Deepak Nair</text>
<text x="336" y="732" font-family="Inter, Arial, sans-serif" font-size="12" font-weight="400" fill="#475569" text-anchor="start" dominant-baseline="middle">…1a5bc7</text>
<text x="470" y="712" font-family="Inter, Arial, sans-serif" font-size="14" font-weight="600" fill="#0f172a" text-anchor="start" dominant-baseline="middle">+91 97444 55667</text>
<text x="470" y="732" font-family="Inter, Arial, sans-serif" font-size="12" font-weight="400" fill="#475569" text-anchor="start" dominant-baseline="middle">deepak.nair@example…</text>
<rect x="618" y="711" width="61" height="22" rx="999" fill="#cffafe"/>


<text x="626" y="722.5" font-family="Inter, Arial, sans-serif" font-size="12" font-weight="600" fill="#0e7490" text-anchor="start" dominant-baseline="middle">Scooter</text>
<rect x="702" y="711" width="80" height="22" rx="999" fill="#fef3c7"/>

<circle cx="717" cy="722" r="7" fill="none" stroke="#b45309"/>
<line x1="717" y1="718" x2="717" y2="722" stroke="#b45309" stroke-width="2" stroke-linecap="round"/>
<line x1="717" y1="722" x2="720" y2="724" stroke="#b45309" stroke-width="2" stroke-linecap="round"/>
<text x="729" y="722.5" font-family="Inter, Arial, sans-serif" font-size="12" font-weight="600" fill="#b45309" text-anchor="start" dominant-baseline="middle">Pending</text>
<rect x="810" y="711" width="66" height="22" rx="999" fill="#dcfce7"/>
<circle cx="822" cy="722" r="4" fill="#15803d"/>

<text x="830" y="722.5" font-family="Inter, Arial, sans-serif" font-size="12" font-weight="600" fill="#15803d" text-anchor="start" dominant-baseline="middle">Online</text>
<text x="978" y="722.5" font-family="Inter, Arial, sans-serif" font-size="14" font-weight="400" fill="#0f172a" text-anchor="end" dominant-baseline="middle">0</text>
<text x="1082" y="722.5" font-family="Inter, Arial, sans-serif" font-size="14" font-weight="400" fill="#0f172a" text-anchor="end" dominant-baseline="middle">0</text>
<text x="1166" y="722.5" font-family="Inter, Arial, sans-serif" font-size="14" font-weight="400" fill="#0f172a" text-anchor="end" dominant-baseline="middle">-</text>
<text x="1182" y="722.5" font-family="Inter, Arial, sans-serif" font-size="14" font-weight="400" fill="#0f172a" text-anchor="start" dominant-baseline="middle">2026-10-01</text>
<ellipse cx="1300" cy="722" rx="8" ry="5" fill="none" stroke="#475569" stroke-width="1.6"/>
<circle cx="1300" cy="722" r="2.4" fill="#475569"/>
<polyline points="1334,722 1338,726 1346,717" fill="none" stroke="#15803d" stroke-width="2" stroke-linecap="round" stroke-linejoin="round"/>
<rect x="1375" y="718" width="10" height="11" rx="1.5" fill="none" stroke="#475569" stroke-width="1.6"/>
<line x1="1373" y1="718" x2="1387" y2="718" stroke="#475569" stroke-width="1.6" stroke-linecap="round"/>
<line x1="1378" y1="715" x2="1382" y2="715" stroke="#475569" stroke-width="1.6" stroke-linecap="round"/>
<line x1="272" y1="756" x2="1414" y2="756" stroke="#e3e8ef" stroke-width="1" stroke-linecap="round"/>
<circle cx="306" cy="790" r="18" fill="#fef3c7"/>
<text x="306" y="790.5" font-family="Inter, Arial, sans-serif" font-size="12" font-weight="700" fill="#b45309" text-anchor="middle" dominant-baseline="middle">LR</text>
<text x="336" y="780" font-family="Inter, Arial, sans-serif" font-size="14" font-weight="600" fill="#0f172a" text-anchor="start" dominant-baseline="middle">Lakshmi Rao</text>
<text x="336" y="800" font-family="Inter, Arial, sans-serif" font-size="12" font-weight="400" fill="#475569" text-anchor="start" dominant-baseline="middle">…1a5cc7</text>
<text x="470" y="780" font-family="Inter, Arial, sans-serif" font-size="14" font-weight="600" fill="#0f172a" text-anchor="start" dominant-baseline="middle">+91 98765 00002</text>
<text x="470" y="800" font-family="Inter, Arial, sans-serif" font-size="12" font-weight="400" fill="#475569" text-anchor="start" dominant-baseline="middle">lakshmi.rao@example…</text>
<rect x="618" y="779" width="61" height="22" rx="999" fill="#cffafe"/>


<text x="626" y="790.5" font-family="Inter, Arial, sans-serif" font-size="12" font-weight="600" fill="#0e7490" text-anchor="start" dominant-baseline="middle">Bicycle</text>
<rect x="702" y="779" width="86" height="22" rx="999" fill="#dcfce7"/>

<polyline points="711,790 715,794 723,785" fill="none" stroke="#15803d" stroke-width="2" stroke-linecap="round" stroke-linejoin="round"/>
<text x="729" y="790.5" font-family="Inter, Arial, sans-serif" font-size="12" font-weight="600" fill="#15803d" text-anchor="start" dominant-baseline="middle">Approved</text>
<rect x="810" y="779" width="66" height="22" rx="999" fill="#dcfce7"/>
<circle cx="822" cy="790" r="4" fill="#15803d"/>

<text x="830" y="790.5" font-family="Inter, Arial, sans-serif" font-size="12" font-weight="600" fill="#15803d" text-anchor="start" dominant-baseline="middle">Online</text>
<text x="978" y="790.5" font-family="Inter, Arial, sans-serif" font-size="14" font-weight="400" fill="#0f172a" text-anchor="end" dominant-baseline="middle">0</text>
<text x="1082" y="790.5" font-family="Inter, Arial, sans-serif" font-size="14" font-weight="400" fill="#0f172a" text-anchor="end" dominant-baseline="middle">45</text>
<polygon points="1133.0,783.0 1134.9,787.5 1139.7,787.8 1136.0,791.0 1137.1,795.7 1133.0,793.1 1128.9,795.7 1130.0,791.0 1126.3,787.8 1131.1,787.5" fill="#b45309"/>
<text x="1166" y="790.5" font-family="Inter, Arial, sans-serif" font-size="14" font-weight="400" fill="#0f172a" text-anchor="end" dominant-baseline="middle">4.5</text>
<text x="1182" y="790.5" font-family="Inter, Arial, sans-serif" font-size="14" font-weight="400" fill="#0f172a" text-anchor="start" dominant-baseline="middle">2026-03-03</text>
<ellipse cx="1300" cy="790" rx="8" ry="5" fill="none" stroke="#475569" stroke-width="1.6"/>
<circle cx="1300" cy="790" r="2.4" fill="#475569"/>
<circle cx="1340" cy="790" r="7" fill="none" stroke="#b91c1c"/>
<line x1="1335" y1="785" x2="1345" y2="795" stroke="#b91c1c" stroke-width="2" stroke-linecap="round"/>
<rect x="1375" y="786" width="10" height="11" rx="1.5" fill="none" stroke="#475569" stroke-width="1.6"/>
<line x1="1373" y1="786" x2="1387" y2="786" stroke="#475569" stroke-width="1.6" stroke-linecap="round"/>
<line x1="1378" y1="783" x2="1382" y2="783" stroke="#475569" stroke-width="1.6" stroke-linecap="round"/>
<line x1="272" y1="824" x2="1414" y2="824" stroke="#e3e8ef" stroke-width="1" stroke-linecap="round"/>
<circle cx="306" cy="858" r="18" fill="#fef3c7"/>
<text x="306" y="858.5" font-family="Inter, Arial, sans-serif" font-size="12" font-weight="700" fill="#b45309" text-anchor="middle" dominant-baseline="middle">YT</text>
<text x="336" y="848" font-family="Inter, Arial, sans-serif" font-size="14" font-weight="600" fill="#0f172a" text-anchor="start" dominant-baseline="middle">Yash Thakur</text>
<text x="336" y="868" font-family="Inter, Arial, sans-serif" font-size="12" font-weight="400" fill="#475569" text-anchor="start" dominant-baseline="middle">…1a5dc7</text>
<text x="470" y="848" font-family="Inter, Arial, sans-serif" font-size="14" font-weight="600" fill="#0f172a" text-anchor="start" dominant-baseline="middle">+91 98765 00014</text>
<text x="470" y="868" font-family="Inter, Arial, sans-serif" font-size="12" font-weight="400" fill="#475569" text-anchor="start" dominant-baseline="middle">yash.thakur@example…</text>
<rect x="618" y="847" width="41" height="22" rx="999" fill="#cffafe"/>


<text x="626" y="858.5" font-family="Inter, Arial, sans-serif" font-size="12" font-weight="600" fill="#0e7490" text-anchor="start" dominant-baseline="middle">Bike</text>
<rect x="702" y="847" width="86" height="22" rx="999" fill="#dcfce7"/>

<polyline points="711,858 715,862 723,853" fill="none" stroke="#15803d" stroke-width="2" stroke-linecap="round" stroke-linejoin="round"/>
<text x="729" y="858.5" font-family="Inter, Arial, sans-serif" font-size="12" font-weight="600" fill="#15803d" text-anchor="start" dominant-baseline="middle">Approved</text>
<rect x="810" y="847" width="66" height="22" rx="999" fill="#dcfce7"/>
<circle cx="822" cy="858" r="4" fill="#15803d"/>

<text x="830" y="858.5" font-family="Inter, Arial, sans-serif" font-size="12" font-weight="600" fill="#15803d" text-anchor="start" dominant-baseline="middle">Online</text>
<text x="978" y="858.5" font-family="Inter, Arial, sans-serif" font-size="14" font-weight="400" fill="#0f172a" text-anchor="end" dominant-baseline="middle">1</text>
<text x="1082" y="858.5" font-family="Inter, Arial, sans-serif" font-size="14" font-weight="400" fill="#0f172a" text-anchor="end" dominant-baseline="middle">199</text>
<polygon points="1133.0,851.0 1134.9,855.5 1139.7,855.8 1136.0,859.0 1137.1,863.7 1133.0,861.1 1128.9,863.7 1130.0,859.0 1126.3,855.8 1131.1,855.5" fill="#b45309"/>
<text x="1166" y="858.5" font-family="Inter, Arial, sans-serif" font-size="14" font-weight="400" fill="#0f172a" text-anchor="end" dominant-baseline="middle">4.4</text>
<text x="1182" y="858.5" font-family="Inter, Arial, sans-serif" font-size="14" font-weight="400" fill="#0f172a" text-anchor="start" dominant-baseline="middle">2026-02-02</text>
<ellipse cx="1300" cy="858" rx="8" ry="5" fill="none" stroke="#475569" stroke-width="1.6"/>
<circle cx="1300" cy="858" r="2.4" fill="#475569"/>
<circle cx="1340" cy="858" r="7" fill="none" stroke="#b91c1c"/>
<line x1="1335" y1="853" x2="1345" y2="863" stroke="#b91c1c" stroke-width="2" stroke-linecap="round"/>
<rect x="1375" y="854" width="10" height="11" rx="1.5" fill="none" stroke="#475569" stroke-width="1.6"/>
<line x1="1373" y1="854" x2="1387" y2="854" stroke="#475569" stroke-width="1.6" stroke-linecap="round"/>
<line x1="1378" y1="851" x2="1382" y2="851" stroke="#475569" stroke-width="1.6" stroke-linecap="round"/>
<line x1="272" y1="892" x2="1414" y2="892" stroke="#e3e8ef" stroke-width="1" stroke-linecap="round"/>
<circle cx="306" cy="926" r="18" fill="#e2e8f0"/>
<text x="306" y="926.5" font-family="Inter, Arial, sans-serif" font-size="12" font-weight="700" fill="#475569" text-anchor="middle" dominant-baseline="middle">AS</text>
<text x="336" y="916" font-family="Inter, Arial, sans-serif" font-size="14" font-weight="600" fill="#0f172a" text-anchor="start" dominant-baseline="middle">Ayesha Siddiqui</text>
<text x="336" y="936" font-family="Inter, Arial, sans-serif" font-size="12" font-weight="400" fill="#475569" text-anchor="start" dominant-baseline="middle">…1a5ec7</text>
<text x="470" y="916" font-family="Inter, Arial, sans-serif" font-size="14" font-weight="600" fill="#0f172a" text-anchor="start" dominant-baseline="middle">+91 98765 00009</text>
<text x="470" y="936" font-family="Inter, Arial, sans-serif" font-size="12" font-weight="400" fill="#475569" text-anchor="start" dominant-baseline="middle">ayesha.siddiqui@exa…</text>
<rect x="618" y="915" width="61" height="22" rx="999" fill="#cffafe"/>


<text x="626" y="926.5" font-family="Inter, Arial, sans-serif" font-size="12" font-weight="600" fill="#0e7490" text-anchor="start" dominant-baseline="middle">Bicycle</text>
<rect x="702" y="915" width="86" height="22" rx="999" fill="#dcfce7"/>

<polyline points="711,926 715,930 723,921" fill="none" stroke="#15803d" stroke-width="2" stroke-linecap="round" stroke-linejoin="round"/>
<text x="729" y="926.5" font-family="Inter, Arial, sans-serif" font-size="12" font-weight="600" fill="#15803d" text-anchor="start" dominant-baseline="middle">Approved</text>
<rect x="810" y="915" width="66" height="22" rx="999" fill="#dcfce7"/>
<circle cx="822" cy="926" r="4" fill="#15803d"/>

<text x="830" y="926.5" font-family="Inter, Arial, sans-serif" font-size="12" font-weight="600" fill="#15803d" text-anchor="start" dominant-baseline="middle">Online</text>
<text x="978" y="926.5" font-family="Inter, Arial, sans-serif" font-size="14" font-weight="400" fill="#0f172a" text-anchor="end" dominant-baseline="middle">0</text>
<text x="1082" y="926.5" font-family="Inter, Arial, sans-serif" font-size="14" font-weight="400" fill="#0f172a" text-anchor="end" dominant-baseline="middle">88</text>
<polygon points="1133.0,919.0 1134.9,923.5 1139.7,923.8 1136.0,927.0 1137.1,931.7 1133.0,929.1 1128.9,931.7 1130.0,927.0 1126.3,923.8 1131.1,923.5" fill="#b45309"/>
<text x="1166" y="926.5" font-family="Inter, Arial, sans-serif" font-size="14" font-weight="400" fill="#0f172a" text-anchor="end" dominant-baseline="middle">4.6</text>
<text x="1182" y="926.5" font-family="Inter, Arial, sans-serif" font-size="14" font-weight="400" fill="#0f172a" text-anchor="start" dominant-baseline="middle">2026-01-20</text>
<ellipse cx="1300" cy="926" rx="8" ry="5" fill="none" stroke="#475569" stroke-width="1.6"/>
<circle cx="1300" cy="926" r="2.4" fill="#475569"/>
<circle cx="1340" cy="926" r="7" fill="none" stroke="#b91c1c"/>
<line x1="1335" y1="921" x2="1345" y2="931" stroke="#b91c1c" stroke-width="2" stroke-linecap="round"/>
<rect x="1375" y="922" width="10" height="11" rx="1.5" fill="none" stroke="#475569" stroke-width="1.6"/>
<line x1="1373" y1="922" x2="1387" y2="922" stroke="#475569" stroke-width="1.6" stroke-linecap="round"/>
<line x1="1378" y1="919" x2="1382" y2="919" stroke="#475569" stroke-width="1.6" stroke-linecap="round"/>
<line x1="272" y1="960" x2="1414" y2="960" stroke="#e3e8ef" stroke-width="1" stroke-linecap="round"/>
<circle cx="306" cy="994" r="18" fill="#cffafe"/>
<text x="306" y="994.5" font-family="Inter, Arial, sans-serif" font-size="12" font-weight="700" fill="#0e7490" text-anchor="middle" dominant-baseline="middle">NC</text>
<text x="336" y="984" font-family="Inter, Arial, sans-serif" font-size="14" font-weight="600" fill="#0f172a" text-anchor="start" dominant-baseline="middle">Nikhil Chauhan</text>
<text x="336" y="1004" font-family="Inter, Arial, sans-serif" font-size="12" font-weight="400" fill="#475569" text-anchor="start" dominant-baseline="middle">…1a5fc7</text>
<text x="470" y="984" font-family="Inter, Arial, sans-serif" font-size="14" font-weight="600" fill="#0f172a" text-anchor="start" dominant-baseline="middle">+91 98765 00008</text>
<text x="470" y="1004" font-family="Inter, Arial, sans-serif" font-size="12" font-weight="400" fill="#475569" text-anchor="start" dominant-baseline="middle">nikhil.chauhan@exam…</text>
<rect x="618" y="983" width="41" height="22" rx="999" fill="#cffafe"/>


<text x="626" y="994.5" font-family="Inter, Arial, sans-serif" font-size="12" font-weight="600" fill="#0e7490" text-anchor="start" dominant-baseline="middle">Bike</text>
<rect x="702" y="983" width="86" height="22" rx="999" fill="#dcfce7"/>

<polyline points="711,994 715,998 723,989" fill="none" stroke="#15803d" stroke-width="2" stroke-linecap="round" stroke-linejoin="round"/>
<text x="729" y="994.5" font-family="Inter, Arial, sans-serif" font-size="12" font-weight="600" fill="#15803d" text-anchor="start" dominant-baseline="middle">Approved</text>
<rect x="810" y="983" width="53" height="22" rx="999" fill="#fef3c7"/>
<circle cx="822" cy="994" r="4" fill="#b45309"/>

<text x="830" y="994.5" font-family="Inter, Arial, sans-serif" font-size="12" font-weight="600" fill="#b45309" text-anchor="start" dominant-baseline="middle">Busy</text>
<text x="978" y="994.5" font-family="Inter, Arial, sans-serif" font-size="14" font-weight="400" fill="#0f172a" text-anchor="end" dominant-baseline="middle">1</text>
<text x="1082" y="994.5" font-family="Inter, Arial, sans-serif" font-size="14" font-weight="400" fill="#0f172a" text-anchor="end" dominant-baseline="middle">277</text>
<polygon points="1133.0,987.0 1134.9,991.5 1139.7,991.8 1136.0,995.0 1137.1,999.7 1133.0,997.1 1128.9,999.7 1130.0,995.0 1126.3,991.8 1131.1,991.5" fill="#b45309"/>
<text x="1166" y="994.5" font-family="Inter, Arial, sans-serif" font-size="14" font-weight="400" fill="#0f172a" text-anchor="end" dominant-baseline="middle">4.3</text>
<text x="1182" y="994.5" font-family="Inter, Arial, sans-serif" font-size="14" font-weight="400" fill="#0f172a" text-anchor="start" dominant-baseline="middle">2025-11-11</text>
<ellipse cx="1300" cy="994" rx="8" ry="5" fill="none" stroke="#475569" stroke-width="1.6"/>
<circle cx="1300" cy="994" r="2.4" fill="#475569"/>
<circle cx="1340" cy="994" r="7" fill="none" stroke="#b91c1c"/>
<line x1="1335" y1="989" x2="1345" y2="999" stroke="#b91c1c" stroke-width="2" stroke-linecap="round"/>
<rect x="1375" y="990" width="10" height="11" rx="1.5" fill="none" stroke="#475569" stroke-width="1.6"/>
<line x1="1373" y1="990" x2="1387" y2="990" stroke="#475569" stroke-width="1.6" stroke-linecap="round"/>
<line x1="1378" y1="987" x2="1382" y2="987" stroke="#475569" stroke-width="1.6" stroke-linecap="round"/>
<line x1="272" y1="1028" x2="1414" y2="1028" stroke="#e3e8ef" stroke-width="1" stroke-linecap="round"/>
<circle cx="306" cy="1062" r="18" fill="#cffafe"/>
<text x="306" y="1062.5" font-family="Inter, Arial, sans-serif" font-size="12" font-weight="700" fill="#0e7490" text-anchor="middle" dominant-baseline="middle">PM</text>
<text x="336" y="1052" font-family="Inter, Arial, sans-serif" font-size="14" font-weight="600" fill="#0f172a" text-anchor="start" dominant-baseline="middle">Pooja Mehta</text>
<text x="336" y="1072" font-family="Inter, Arial, sans-serif" font-size="12" font-weight="400" fill="#475569" text-anchor="start" dominant-baseline="middle">…1a60c7</text>
<text x="470" y="1052" font-family="Inter, Arial, sans-serif" font-size="14" font-weight="600" fill="#0f172a" text-anchor="start" dominant-baseline="middle">+91 94444 33322</text>
<text x="470" y="1072" font-family="Inter, Arial, sans-serif" font-size="12" font-weight="400" fill="#475569" text-anchor="start" dominant-baseline="middle">pooja.mehta@example…</text>
<rect x="618" y="1051" width="61" height="22" rx="999" fill="#cffafe"/>


<text x="626" y="1062.5" font-family="Inter, Arial, sans-serif" font-size="12" font-weight="600" fill="#0e7490" text-anchor="start" dominant-baseline="middle">Scooter</text>
<rect x="702" y="1051" width="86" height="22" rx="999" fill="#dcfce7"/>

<polyline points="711,1062 715,1066 723,1057" fill="none" stroke="#15803d" stroke-width="2" stroke-linecap="round" stroke-linejoin="round"/>
<text x="729" y="1062.5" font-family="Inter, Arial, sans-serif" font-size="12" font-weight="600" fill="#15803d" text-anchor="start" dominant-baseline="middle">Approved</text>
<rect x="810" y="1051" width="73" height="22" rx="999" fill="#e2e8f0"/>
<circle cx="822" cy="1062" r="4" fill="#475569"/>

<text x="830" y="1062.5" font-family="Inter, Arial, sans-serif" font-size="12" font-weight="600" fill="#475569" text-anchor="start" dominant-baseline="middle">Offline</text>
<text x="978" y="1062.5" font-family="Inter, Arial, sans-serif" font-size="14" font-weight="400" fill="#0f172a" text-anchor="end" dominant-baseline="middle">0</text>
<text x="1082" y="1062.5" font-family="Inter, Arial, sans-serif" font-size="14" font-weight="400" fill="#0f172a" text-anchor="end" dominant-baseline="middle">61</text>
<polygon points="1133.0,1055.0 1134.9,1059.5 1139.7,1059.8 1136.0,1063.0 1137.1,1067.7 1133.0,1065.2 1128.9,1067.7 1130.0,1063.0 1126.3,1059.8 1131.1,1059.5" fill="#b45309"/>
<text x="1166" y="1062.5" font-family="Inter, Arial, sans-serif" font-size="14" font-weight="400" fill="#0f172a" text-anchor="end" dominant-baseline="middle">3.9</text>
<text x="1182" y="1062.5" font-family="Inter, Arial, sans-serif" font-size="14" font-weight="400" fill="#0f172a" text-anchor="start" dominant-baseline="middle">2025-10-30</text>
<ellipse cx="1300" cy="1062" rx="8" ry="5" fill="none" stroke="#475569" stroke-width="1.6"/>
<circle cx="1300" cy="1062" r="2.4" fill="#475569"/>
<circle cx="1340" cy="1062" r="7" fill="none" stroke="#b91c1c"/>
<line x1="1335" y1="1057" x2="1345" y2="1067" stroke="#b91c1c" stroke-width="2" stroke-linecap="round"/>
<rect x="1375" y="1058" width="10" height="11" rx="1.5" fill="none" stroke="#475569" stroke-width="1.6"/>
<line x1="1373" y1="1058" x2="1387" y2="1058" stroke="#475569" stroke-width="1.6" stroke-linecap="round"/>
<line x1="1378" y1="1055" x2="1382" y2="1055" stroke="#475569" stroke-width="1.6" stroke-linecap="round"/>
<line x1="272" y1="1096" x2="1416" y2="1096" stroke="#e3e8ef" stroke-width="1" stroke-linecap="round"/>
<text x="288" y="1132.5" font-family="Inter, Arial, sans-serif" font-size="14" font-weight="400" fill="#475569" text-anchor="start" dominant-baseline="middle">Total</text>
<text x="332" y="1132.5" font-family="Inter, Arial, sans-serif" font-size="14" font-weight="700" fill="#0f172a" text-anchor="start" dominant-baseline="middle">32</text>
<rect x="1324" y="1110" width="76" height="44" rx="7" fill="#ffffff" stroke="#cbd5e1" stroke-width="1"/>
<text x="1344" y="1132.5" font-family="Inter, Arial, sans-serif" font-size="14" font-weight="400" fill="#0f172a" text-anchor="start" dominant-baseline="middle">10</text>
<polyline points="1372,1129 1378,1135 1384,1129" fill="none" stroke="#64748b" stroke-width="2" stroke-linecap="round" stroke-linejoin="round"/>
<text x="1292" y="1132.5" font-family="Inter, Arial, sans-serif" font-size="14" font-weight="400" fill="#475569" text-anchor="middle" dominant-baseline="middle">»</text>
<text x="1252" y="1132.5" font-family="Inter, Arial, sans-serif" font-size="14" font-weight="400" fill="#475569" text-anchor="middle" dominant-baseline="middle">›</text>
<text x="1212" y="1132.5" font-family="Inter, Arial, sans-serif" font-size="14" font-weight="400" fill="#475569" text-anchor="middle" dominant-baseline="middle">4</text>
<text x="1172" y="1132.5" font-family="Inter, Arial, sans-serif" font-size="14" font-weight="400" fill="#475569" text-anchor="middle" dominant-baseline="middle">3</text>
<text x="1132" y="1132.5" font-family="Inter, Arial, sans-serif" font-size="14" font-weight="400" fill="#475569" text-anchor="middle" dominant-baseline="middle">2</text>
<circle cx="1092" cy="1132" r="20" fill="#dbeafe"/>
<text x="1092" y="1132.5" font-family="Inter, Arial, sans-serif" font-size="14" font-weight="600" fill="#1d4ed8" text-anchor="middle" dominant-baseline="middle">1</text>
<text x="1052" y="1132.5" font-family="Inter, Arial, sans-serif" font-size="14" font-weight="400" fill="#475569" text-anchor="middle" dominant-baseline="middle">‹</text>
<text x="1012" y="1132.5" font-family="Inter, Arial, sans-serif" font-size="14" font-weight="400" fill="#475569" text-anchor="middle" dominant-baseline="middle">«</text></g>
</svg>
